<svg xmlns="http://www.w3.org/2000/svg" width="18" height="18" viewBox="0 0 18 18"><path d="M4.273 6.437a4.35 4.35 0 00-.03 8.7h9.714a4.043 4.043 0 000-8.085 3.9 3.9 0 00-.578.042l-.28.041-.013-.287a4.314 4.314 0 00-4.278-4.1h-.175A4.313 4.313 0 004.615 6.23l-.04.207zM8.82 4.286a2.775 2.775 0 012.737 2.651l.108 1.961 1.946-.288a2.474 2.474 0 01.35-.026 2.505 2.505 0 01.009 5.009H4.257a2.812 2.812 0 01-.008-5.622l1.583.015.293-1.459a2.776 2.776 0 012.684-2.244" fill="#707070"/><path fill="none" d="M0 0h18v18H0z"/></svg>