<svg xmlns="http://www.w3.org/2000/svg" width="13" height="13" viewBox="0 0 13 13"><path fill="none" d="M0 0h13v13H0z"/><path d="M6.442.418S2.04 6.582 2.05 8.545a.934.934 0 00.01.119 4.424 4.424 0 004.77 4.069 4.443 4.443 0 003.994-4.069.808.808 0 00.01-.121C10.844 6.299 6.442.418 6.442.418zM4.938 4.199c.551-.9 1.11-1.735 1.518-2.341.4.578.95 1.375 1.492 2.236 1.852 2.952 2.061 4.083 2.063 4.438v.054a3.663 3.663 0 01-.39 1.353H3.272a3.671 3.671 0 01-.389-1.355v-.053c-.006-.241.156-1.245 2.055-4.332z" fill="#e2251a"/><path d="M6.438 12.999a4.657 4.657 0 01-4.627-4.313 1.009 1.009 0 01-.011-.139C1.79 6.525 6.057.532 6.238.278l.199-.279.206.274c.181.242 4.452 5.971 4.441 8.269a1.055 1.055 0 01-.013.158 4.681 4.681 0 01-4.219 4.28q-.208.019-.414.019zM6.446.863C5.122 2.749 2.3 7.083 2.3 8.543a.778.778 0 00.007.081 4.156 4.156 0 004.127 3.863c.123 0 .246-.005.37-.016a4.18 4.18 0 003.767-3.831.673.673 0 00.009-.1c.008-1.855-3.274-6.493-4.134-7.677zm3.325 9.331h-6.65l-.072-.139a3.918 3.918 0 01-.416-1.448v-.076c-.007-.3.184-1.36 2.093-4.463A66.91 66.91 0 016.25 1.721l.2-.3.209.3a60.33 60.33 0 011.5 2.243c1.822 2.9 2.1 4.11 2.1 4.571v.074a3.906 3.906 0 01-.417 1.448zm-6.342-.513h6.034a3.4 3.4 0 00.3-1.118c0-.284-.153-1.346-2.024-4.325A54.746 54.746 0 006.46 2.316a63.742 63.742 0 00-1.308 2.025C3.173 7.554 3.134 8.434 3.136 8.525a3.388 3.388 0 00.293 1.156z" fill="#e12419"/></svg>