<svg xmlns="http://www.w3.org/2000/svg" width="18" height="18" viewBox="0 0 18 18"><path d="M3.327 11.259a4.241 4.241 0 00.417.595l.366.442a3.239 3.239 0 01.226.425 3.944 3.944 0 01.289.991 9.784 9.784 0 01.078 2.072c-.085 1.28-.21 2.218-.21 2.218a6.29 6.29 0 001.229-1.977 6.132 6.132 0 00.356-1.1 5.342 5.342 0 00.153-1.336 4.311 4.311 0 00-.248-1.507 4.883 4.883 0 00-.357-.752 3.886 3.886 0 00-.248-.347l-.131-.171-.067-.081-.015-.021c.007.009.021.022.046.052l-.008-.011-.024-.031a3.411 3.411 0 01-.367-.476 2.2 2.2 0 01-.183-.385 4.294 4.294 0 01-.271-1.006 10.9 10.9 0 01-.064-2.086c.086-1.285.2-2.222.2-2.222a7.112 7.112 0 00-1.746 4.4 4.359 4.359 0 00.217 1.5 3.675 3.675 0 00.362.814zM7.361 6.71a4.213 4.213 0 00.417.6l.366.44a3.046 3.046 0 01.227.428 3.884 3.884 0 01.289.987 9.77 9.77 0 01.078 2.074c-.083 1.282-.208 2.216-.208 2.216a6.3 6.3 0 001.228-1.974 6 6 0 00.355-1.106 5.148 5.148 0 00.153-1.331 4.261 4.261 0 00-.248-1.509 4.889 4.889 0 00-.357-.752 3.88 3.88 0 00-.25-.347l-.13-.171-.067-.083-.013-.021a.339.339 0 00.038.042l-.024-.028a3.423 3.423 0 01-.365-.477 2.1 2.1 0 01-.183-.387 4.143 4.143 0 01-.27-1 11.028 11.028 0 01-.064-2.088c.085-1.284.2-2.219.2-2.219a7.09 7.09 0 00-1.747 4.4 4.456 4.456 0 00.216 1.506 3.677 3.677 0 00.359.8zm4.984 4.124a4.105 4.105 0 00.414.595l.366.441a3.079 3.079 0 01.227.428 3.86 3.86 0 01.289.988 9.854 9.854 0 01.079 2.072c-.083 1.285-.208 2.218-.208 2.218a6.281 6.281 0 001.226-1.981 6.022 6.022 0 00.355-1.1 5.322 5.322 0 00.153-1.335 4.257 4.257 0 00-.248-1.506 4.8 4.8 0 00-.356-.753c-.071-.122-.164-.229-.248-.346l-.13-.17-.067-.084-.016-.023.045.054v-.009l-.024-.034a3.033 3.033 0 01-.366-.475 2.082 2.082 0 01-.185-.387 4.389 4.389 0 01-.271-1.005 10.92 10.92 0 01-.062-2.087c.082-1.284.2-2.22.2-2.22a7.132 7.132 0 00-1.745 4.4 4.307 4.307 0 00.213 1.505 3.723 3.723 0 00.359.814z" fill="#707070"/><path fill="none" d="M0 0h18v18H0z"/></svg>